SplineFontDB: 3.2
FontName: SixOnePixels
FullName: Six One Pixels
FamilyName: SixOnePixels
Weight: Regular
Copyright: Copyright (c) 2024, Mounir Tohami (https://mounirtohami.itch.io | whalesstate@gmail.com)
Version: 001.000
ItalicAngle: 0
UnderlinePosition: 0
UnderlineWidth: 0
Ascent: 878
Descent: 146
InvalidEm: 0
sfntRevision: 0x00010000
LayerCount: 2
Layer: 0 1 "Back" 1
Layer: 1 1 "Fore" 0
XUID: [1021 465 1097079576 12244]
StyleMap: 0x0040
FSType: 4
OS2Version: 2
OS2_WeightWidthSlopeOnly: 0
OS2_UseTypoMetrics: 0
CreationTime: 1707066177
ModificationTime: 1707069948
PfmFamily: 81
TTFWeight: 400
TTFWidth: 5
LineGap: 0
VLineGap: 0
Panose: 0 0 4 0 0 0 0 0 0 0
OS2TypoAscent: 878
OS2TypoAOffset: 0
OS2TypoDescent: -146
OS2TypoDOffset: 0
OS2TypoLinegap: 0
OS2WinAscent: 878
OS2WinAOffset: 0
OS2WinDescent: 146
OS2WinDOffset: 0
HheadAscent: 878
HheadAOffset: 0
HheadDescent: -146
HheadDOffset: 0
OS2SubXSize: 585
OS2SubYSize: 585
OS2SubXOff: 0
OS2SubYOff: 0
OS2SupXSize: 585
OS2SupYSize: 585
OS2SupXOff: 0
OS2SupYOff: 585
OS2StrikeYSize: 0
OS2StrikeYPos: 146
OS2CapHeight: 878
OS2XHeight: 731
OS2Vendor: 'FSTR'
OS2CodePages: 200101ff.cdff0000
OS2UnicodeRanges: 00000001.00000000.00000000.00000000
MarkAttachClasses: 1
DEI: 91125
ShortTable: maxp 16
  1
  0
  96
  36
  9
  0
  0
  2
  0
  0
  0
  0
  0
  0
  0
  0
EndShort
LangName: 1033 "" "" "" "" "" "Version 1.0"
Encoding: UnicodeBmp
UnicodeInterp: none
NameList: AGL For New Fonts
DisplaySize: -48
AntiAlias: 1
FitToEm: 0
WinInfo: 44 22 14
BeginPrivate: 0
EndPrivate
BeginChars: 65537 96

StartChar: .notdef
Encoding: 65536 -1 0
Width: 731
GlyphClass: 1
Flags: W
LayerCount: 2
Fore
SplineSet
640 25 m 1,0,-1
 338 429 l 1,1,-1
 34 25 l 1,2,-1
 640 25 l 1,0,-1
25 34 m 1,3,4
 26 34 26 34 328 438 c 1,5,-1
 25 843 l 1,6,-1
 25 34 l 1,3,4
650 34 m 1,7,-1
 650 843 l 1,8,9
 650 842 650 842 347 438 c 1,10,-1
 650 34 l 1,7,-1
338 448 m 1,11,-1
 640 852 l 1,12,-1
 34 852 l 1,13,-1
 338 448 l 1,11,-1
0 0 m 1,14,-1
 0 878 l 1,15,-1
 675 878 l 1,16,-1
 675 0 l 1,17,-1
 0 0 l 1,14,-1
EndSplineSet
EndChar

StartChar: exclam
Encoding: 33 33 2
Width: 438
GlyphClass: 1
Flags: W
LayerCount: 2
Fore
SplineSet
146 0 m 1,0,-1
 146 146 l 1,1,-1
 292 146 l 1,2,-1
 292 0 l 1,3,-1
 146 0 l 1,0,-1
146 292 m 1,4,-1
 146 878 l 1,5,-1
 292 878 l 1,6,-1
 292 292 l 1,7,-1
 146 292 l 1,4,-1
EndSplineSet
EndChar

StartChar: quotedbl
Encoding: 34 34 3
Width: 585
GlyphClass: 1
Flags: W
LayerCount: 2
Fore
SplineSet
0 585 m 1,0,1
 0 586 0 586 0 878 c 1,2,-1
 146 878 l 1,3,-1
 146 585 l 1,4,-1
 0 585 l 1,0,1
292 585 m 1,5,6
 292 586 292 586 292 878 c 1,7,-1
 438 878 l 1,8,-1
 438 585 l 1,9,-1
 292 585 l 1,5,6
EndSplineSet
EndChar

StartChar: numbersign
Encoding: 35 35 4
Width: 877
GlyphClass: 1
Flags: W
LayerCount: 2
Fore
SplineSet
438 292 m 1,0,-1
 438 585 l 1,1,-1
 292 585 l 1,2,3
 292 584 292 584 292 292 c 1,4,-1
 438 292 l 1,0,-1
146 0 m 1,5,-1
 146 146 l 1,6,-1
 0 146 l 1,7,-1
 0 292 l 1,8,-1
 146 292 l 1,9,-1
 146 585 l 1,10,-1
 0 585 l 1,11,-1
 0 731 l 1,12,-1
 146 731 l 1,13,14
 146 732 146 732 146 878 c 1,15,-1
 292 878 l 1,16,-1
 292 731 l 1,17,-1
 438 731 l 1,18,19
 438 732 438 732 438 878 c 1,20,-1
 585 878 l 1,21,-1
 585 731 l 1,22,-1
 731 731 l 1,23,-1
 731 585 l 1,24,-1
 585 585 l 1,25,26
 585 584 585 584 585 292 c 1,27,-1
 731 292 l 1,28,-1
 731 146 l 1,29,-1
 585 146 l 1,30,-1
 585 0 l 1,31,32
 584 0 584 0 438 0 c 1,33,-1
 438 146 l 1,34,-1
 292 146 l 1,35,-1
 292 0 l 1,36,-1
 146 0 l 1,5,-1
EndSplineSet
EndChar

StartChar: dollar
Encoding: 36 36 5
Width: 731
GlyphClass: 1
Flags: W
LayerCount: 2
Fore
SplineSet
438 146 m 1,0,-1
 438 292 l 1,1,-1
 585 292 l 1,2,-1
 585 146 l 1,3,-1
 438 146 l 1,0,-1
0 438 m 1,4,-1
 0 585 l 1,5,-1
 146 585 l 1,6,7
 146 584 146 584 146 438 c 1,8,-1
 0 438 l 1,4,-1
146 -146 m 1,9,-1
 146 0 l 1,10,-1
 0 0 l 1,11,-1
 0 146 l 1,12,-1
 146 146 l 1,13,-1
 146 438 l 1,14,-1
 292 438 l 1,15,-1
 292 585 l 1,16,-1
 146 585 l 1,17,-1
 146 731 l 1,18,-1
 292 731 l 1,19,20
 292 732 292 732 292 878 c 1,21,-1
 438 878 l 1,22,-1
 438 731 l 1,23,-1
 585 731 l 1,24,-1
 585 585 l 1,25,26
 584 585 584 585 438 585 c 1,27,28
 438 584 438 584 438 292 c 1,29,-1
 292 292 l 1,30,-1
 292 146 l 1,31,-1
 438 146 l 1,32,-1
 438 0 l 1,33,-1
 292 0 l 1,34,-1
 292 -146 l 1,35,-1
 146 -146 l 1,9,-1
EndSplineSet
EndChar

StartChar: percent
Encoding: 37 37 6
Width: 585
GlyphClass: 1
Flags: W
LayerCount: 2
Fore
SplineSet
292 0 m 1,0,-1
 292 146 l 1,1,-1
 438 146 l 1,2,-1
 438 0 l 1,3,-1
 292 0 l 1,0,-1
0 0 m 1,4,-1
 0 292 l 1,5,-1
 146 292 l 1,6,-1
 146 0 l 1,7,-1
 0 0 l 1,4,-1
146 292 m 1,8,-1
 146 585 l 1,9,-1
 292 585 l 1,10,11
 292 584 292 584 292 292 c 1,12,-1
 146 292 l 1,8,-1
0 731 m 1,13,14
 0 732 0 732 0 878 c 1,15,-1
 146 878 l 1,16,-1
 146 731 l 1,17,-1
 0 731 l 1,13,14
292 585 m 1,18,19
 292 586 292 586 292 878 c 1,20,-1
 438 878 l 1,21,-1
 438 585 l 1,22,-1
 292 585 l 1,18,19
EndSplineSet
EndChar

StartChar: ampersand
Encoding: 38 38 7
Width: 877
GlyphClass: 1
Flags: W
LayerCount: 2
Fore
SplineSet
146 0 m 1,0,-1
 146 146 l 1,1,-1
 438 146 l 1,2,-1
 438 0 l 1,3,-1
 146 0 l 1,0,-1
585 0 m 1,4,-1
 585 146 l 1,5,-1
 731 146 l 1,6,-1
 731 0 l 1,7,-1
 585 0 l 1,4,-1
0 146 m 1,8,-1
 0 438 l 1,9,-1
 146 438 l 1,10,-1
 146 146 l 1,11,-1
 0 146 l 1,8,-1
438 146 m 1,12,-1
 438 438 l 1,13,-1
 585 438 l 1,14,-1
 585 146 l 1,15,-1
 438 146 l 1,12,-1
146 438 m 1,16,-1
 146 585 l 1,17,-1
 438 585 l 1,18,19
 438 584 438 584 438 438 c 1,20,-1
 146 438 l 1,16,-1
585 438 m 1,21,-1
 585 585 l 1,22,-1
 731 585 l 1,23,24
 731 584 731 584 731 438 c 1,25,-1
 585 438 l 1,21,-1
0 585 m 1,26,-1
 0 731 l 1,27,-1
 146 731 l 1,28,-1
 146 585 l 1,29,-1
 0 585 l 1,26,-1
146 731 m 1,30,31
 146 732 146 732 146 878 c 1,32,-1
 438 878 l 1,33,-1
 438 731 l 1,34,-1
 146 731 l 1,30,31
EndSplineSet
EndChar

StartChar: quotesingle
Encoding: 39 39 8
Width: 292
GlyphClass: 1
Flags: W
LayerCount: 2
Fore
SplineSet
0 585 m 1,0,1
 0 586 0 586 0 878 c 1,2,-1
 146 878 l 1,3,-1
 146 585 l 1,4,-1
 0 585 l 1,0,1
EndSplineSet
EndChar

StartChar: parenleft
Encoding: 40 40 9
Width: 438
GlyphClass: 1
Flags: W
LayerCount: 2
Fore
SplineSet
146 -146 m 1,0,-1
 146 0 l 1,1,-1
 292 0 l 1,2,-1
 292 -146 l 1,3,-1
 146 -146 l 1,0,-1
0 0 m 1,4,-1
 0 731 l 1,5,-1
 146 731 l 1,6,-1
 146 0 l 1,7,-1
 0 0 l 1,4,-1
146 731 m 1,8,9
 146 732 146 732 146 878 c 1,10,-1
 292 878 l 1,11,-1
 292 731 l 1,12,-1
 146 731 l 1,8,9
EndSplineSet
EndChar

StartChar: parenright
Encoding: 41 41 10
Width: 438
GlyphClass: 1
Flags: W
LayerCount: 2
Fore
SplineSet
0 -146 m 1,0,-1
 0 0 l 1,1,-1
 146 0 l 1,2,-1
 146 -146 l 1,3,-1
 0 -146 l 1,0,-1
146 0 m 1,4,-1
 146 731 l 1,5,-1
 292 731 l 1,6,-1
 292 0 l 1,7,-1
 146 0 l 1,4,-1
0 731 m 1,8,9
 0 732 0 732 0 878 c 1,10,-1
 146 878 l 1,11,-1
 146 731 l 1,12,-1
 0 731 l 1,8,9
EndSplineSet
EndChar

StartChar: asterisk
Encoding: 42 42 11
Width: 585
GlyphClass: 1
Flags: W
LayerCount: 2
Fore
SplineSet
0 438 m 1,0,-1
 0 585 l 1,1,-1
 146 585 l 1,2,3
 146 584 146 584 146 438 c 1,4,-1
 0 438 l 1,0,-1
292 438 m 1,5,-1
 292 585 l 1,6,-1
 438 585 l 1,7,8
 438 584 438 584 438 438 c 1,9,-1
 292 438 l 1,5,-1
146 585 m 1,10,-1
 146 731 l 1,11,-1
 292 731 l 1,12,-1
 292 585 l 1,13,-1
 146 585 l 1,10,-1
0 731 m 1,14,15
 0 732 0 732 0 878 c 1,16,-1
 146 878 l 1,17,-1
 146 731 l 1,18,-1
 0 731 l 1,14,15
292 731 m 1,19,20
 292 732 292 732 292 878 c 1,21,-1
 438 878 l 1,22,-1
 438 731 l 1,23,-1
 292 731 l 1,19,20
EndSplineSet
EndChar

StartChar: plus
Encoding: 43 43 12
Width: 877
GlyphClass: 1
Flags: W
LayerCount: 2
Fore
SplineSet
292 0 m 1,0,-1
 292 292 l 1,1,-1
 0 292 l 1,2,-1
 0 438 l 1,3,-1
 292 438 l 1,4,-1
 292 731 l 1,5,-1
 438 731 l 1,6,7
 438 730 438 730 438 438 c 1,8,-1
 731 438 l 1,9,-1
 731 292 l 1,10,11
 730 292 730 292 438 292 c 1,12,-1
 438 0 l 1,13,-1
 292 0 l 1,0,-1
EndSplineSet
EndChar

StartChar: comma
Encoding: 44 44 13
Width: 292
GlyphClass: 1
Flags: W
LayerCount: 2
Fore
SplineSet
0 -146 m 1,0,-1
 0 146 l 1,1,-1
 146 146 l 1,2,-1
 146 -146 l 1,3,-1
 0 -146 l 1,0,-1
EndSplineSet
EndChar

StartChar: hyphen
Encoding: 45 45 14
Width: 731
GlyphClass: 1
Flags: W
LayerCount: 2
Fore
SplineSet
0 292 m 1,0,-1
 0 438 l 1,1,-1
 585 438 l 1,2,-1
 585 292 l 1,3,-1
 0 292 l 1,0,-1
EndSplineSet
EndChar

StartChar: period
Encoding: 46 46 15
Width: 292
GlyphClass: 1
Flags: W
LayerCount: 2
Fore
SplineSet
0 0 m 1,0,-1
 0 146 l 1,1,-1
 146 146 l 1,2,-1
 146 0 l 1,3,-1
 0 0 l 1,0,-1
EndSplineSet
EndChar

StartChar: slash
Encoding: 47 47 16
Width: 585
GlyphClass: 1
Flags: W
LayerCount: 2
Fore
SplineSet
0 0 m 1,0,-1
 0 292 l 1,1,-1
 146 292 l 1,2,-1
 146 0 l 1,3,-1
 0 0 l 1,0,-1
146 292 m 1,4,-1
 146 585 l 1,5,-1
 292 585 l 1,6,7
 292 584 292 584 292 292 c 1,8,-1
 146 292 l 1,4,-1
292 585 m 1,9,10
 292 586 292 586 292 878 c 1,11,-1
 438 878 l 1,12,-1
 438 585 l 1,13,-1
 292 585 l 1,9,10
EndSplineSet
EndChar

StartChar: zero
Encoding: 48 48 17
Width: 731
GlyphClass: 1
InSpiro: 1
Flags: W
LayerCount: 2
Fore
SplineSet
146 0 m 1,0,-1
 146 146 l 1,1,-1
 438 146 l 1,2,-1
 438 0 l 1,3,-1
 146 0 l 1,0,-1
  Spiro
    146 0 v
    146 146 v
    438 146 v
    438 0 v
    0 0 z
  EndSpiro
0 146 m 1,4,-1
 0 731 l 1,5,-1
 146 731 l 1,6,7
 146 730 146 730 146 438 c 1,8,-1
 292 438 l 1,9,-1
 292 292 l 1,10,-1
 146 292 l 1,11,-1
 146 146 l 1,12,-1
 0 146 l 1,4,-1
  Spiro
    0 146 v
    0 731 v
    146 731 v
    146 438 v
    291.999 438 v
    291.999 291.999 v
    146 291.999 v
    146 146 v
    0 0 z
  EndSpiro
438 146 m 1,13,-1
 438 438 l 1,14,-1
 292 438 l 1,15,-1
 292 585 l 1,16,-1
 438 585 l 1,17,-1
 438 731 l 1,18,-1
 585 731 l 1,19,-1
 585 146 l 1,20,-1
 438 146 l 1,13,-1
  Spiro
    438 146 v
    438 438 v
    291.999 438 v
    291.999 584.999 v
    438 584.999 v
    438 731 v
    584.999 731 v
    584.999 146 v
    0 0 z
  EndSpiro
146 731 m 1,21,22
 146 732 146 732 146 878 c 1,23,-1
 438 878 l 1,24,-1
 438 731 l 1,25,-1
 146 731 l 1,21,22
  Spiro
    146 731 v
    146 878 v
    438 878 v
    438 731 v
    0 0 z
  EndSpiro
EndSplineSet
EndChar

StartChar: one
Encoding: 49 49 18
Width: 585
GlyphClass: 1
Flags: W
LayerCount: 2
Fore
SplineSet
0 0 m 1,0,-1
 0 146 l 1,1,-1
 146 146 l 1,2,-1
 146 585 l 1,3,-1
 0 585 l 1,4,-1
 0 731 l 1,5,-1
 146 731 l 1,6,7
 146 732 146 732 146 878 c 1,8,-1
 292 878 l 1,9,-1
 292 146 l 1,10,-1
 438 146 l 1,11,-1
 438 0 l 1,12,-1
 0 0 l 1,0,-1
EndSplineSet
EndChar

StartChar: two
Encoding: 50 50 19
Width: 731
GlyphClass: 1
Flags: W
LayerCount: 2
Fore
SplineSet
0 0 m 1,0,-1
 0 146 l 1,1,-1
 146 146 l 1,2,-1
 146 292 l 1,3,-1
 292 292 l 1,4,-1
 292 146 l 1,5,-1
 585 146 l 1,6,-1
 585 0 l 1,7,-1
 0 0 l 1,0,-1
292 292 m 1,8,-1
 292 438 l 1,9,-1
 438 438 l 1,10,-1
 438 292 l 1,11,-1
 292 292 l 1,8,-1
0 585 m 1,12,-1
 0 731 l 1,13,-1
 146 731 l 1,14,-1
 146 585 l 1,15,-1
 0 585 l 1,12,-1
438 438 m 1,16,-1
 438 731 l 1,17,-1
 585 731 l 1,18,19
 585 730 585 730 585 438 c 1,20,-1
 438 438 l 1,16,-1
146 731 m 1,21,22
 146 732 146 732 146 878 c 1,23,-1
 438 878 l 1,24,-1
 438 731 l 1,25,-1
 146 731 l 1,21,22
EndSplineSet
EndChar

StartChar: three
Encoding: 51 51 20
Width: 731
GlyphClass: 1
Flags: W
LayerCount: 2
Fore
SplineSet
0 0 m 1,0,-1
 0 146 l 1,1,-1
 438 146 l 1,2,-1
 438 0 l 1,3,-1
 0 0 l 1,0,-1
438 146 m 1,4,-1
 438 438 l 1,5,-1
 585 438 l 1,6,-1
 585 146 l 1,7,-1
 438 146 l 1,4,-1
146 438 m 1,8,-1
 146 585 l 1,9,-1
 438 585 l 1,10,11
 438 584 438 584 438 438 c 1,12,-1
 146 438 l 1,8,-1
438 585 m 1,13,-1
 438 731 l 1,14,-1
 585 731 l 1,15,-1
 585 585 l 1,16,-1
 438 585 l 1,13,-1
0 731 m 1,17,18
 0 732 0 732 0 878 c 1,19,-1
 438 878 l 1,20,-1
 438 731 l 1,21,-1
 0 731 l 1,17,18
EndSplineSet
EndChar

StartChar: four
Encoding: 52 52 21
Width: 731
GlyphClass: 1
Flags: W
LayerCount: 2
Fore
SplineSet
292 0 m 1,0,-1
 292 292 l 1,1,-1
 0 292 l 1,2,-1
 0 878 l 1,3,-1
 146 878 l 1,4,-1
 146 438 l 1,5,-1
 292 438 l 1,6,-1
 292 878 l 1,7,-1
 438 878 l 1,8,-1
 438 438 l 1,9,-1
 585 438 l 1,10,-1
 585 292 l 1,11,12
 584 292 584 292 438 292 c 1,13,-1
 438 0 l 1,14,-1
 292 0 l 1,0,-1
EndSplineSet
EndChar

StartChar: five
Encoding: 53 53 22
Width: 731
GlyphClass: 1
Flags: W
LayerCount: 2
Fore
SplineSet
0 0 m 1,0,-1
 0 146 l 1,1,-1
 438 146 l 1,2,-1
 438 0 l 1,3,-1
 0 0 l 1,0,-1
438 146 m 1,4,-1
 438 438 l 1,5,-1
 585 438 l 1,6,-1
 585 146 l 1,7,-1
 438 146 l 1,4,-1
0 438 m 1,8,-1
 0 878 l 1,9,-1
 585 878 l 1,10,-1
 585 731 l 1,11,-1
 146 731 l 1,12,-1
 146 585 l 1,13,-1
 438 585 l 1,14,15
 438 584 438 584 438 438 c 1,16,-1
 0 438 l 1,8,-1
EndSplineSet
EndChar

StartChar: six
Encoding: 54 54 23
Width: 731
GlyphClass: 1
Flags: W
LayerCount: 2
Fore
SplineSet
146 0 m 1,0,-1
 146 146 l 1,1,-1
 438 146 l 1,2,-1
 438 0 l 1,3,-1
 146 0 l 1,0,-1
438 146 m 1,4,-1
 438 438 l 1,5,-1
 585 438 l 1,6,-1
 585 146 l 1,7,-1
 438 146 l 1,4,-1
0 146 m 1,8,-1
 0 731 l 1,9,-1
 146 731 l 1,10,-1
 146 585 l 1,11,-1
 438 585 l 1,12,13
 438 584 438 584 438 438 c 1,14,-1
 146 438 l 1,15,-1
 146 146 l 1,16,-1
 0 146 l 1,8,-1
146 731 m 1,17,18
 146 732 146 732 146 878 c 1,19,-1
 585 878 l 1,20,-1
 585 731 l 1,21,-1
 146 731 l 1,17,18
EndSplineSet
EndChar

StartChar: seven
Encoding: 55 55 24
Width: 731
GlyphClass: 1
Flags: W
LayerCount: 2
Fore
SplineSet
146 0 m 1,0,-1
 146 292 l 1,1,-1
 292 292 l 1,2,-1
 292 0 l 1,3,-1
 146 0 l 1,0,-1
292 292 m 1,4,-1
 292 585 l 1,5,-1
 438 585 l 1,6,7
 438 584 438 584 438 292 c 1,8,-1
 292 292 l 1,4,-1
438 585 m 1,9,-1
 438 731 l 1,10,-1
 0 731 l 1,11,12
 0 732 0 732 0 878 c 1,13,-1
 585 878 l 1,14,-1
 585 585 l 1,15,-1
 438 585 l 1,9,-1
EndSplineSet
EndChar

StartChar: eight
Encoding: 56 56 25
Width: 731
GlyphClass: 1
Flags: W
LayerCount: 2
Fore
SplineSet
146 0 m 1,0,-1
 146 146 l 1,1,-1
 438 146 l 1,2,-1
 438 0 l 1,3,-1
 146 0 l 1,0,-1
0 146 m 1,4,-1
 0 438 l 1,5,-1
 146 438 l 1,6,-1
 146 146 l 1,7,-1
 0 146 l 1,4,-1
438 146 m 1,8,-1
 438 438 l 1,9,-1
 585 438 l 1,10,-1
 585 146 l 1,11,-1
 438 146 l 1,8,-1
146 438 m 1,12,-1
 146 585 l 1,13,-1
 438 585 l 1,14,15
 438 584 438 584 438 438 c 1,16,-1
 146 438 l 1,12,-1
0 585 m 1,17,-1
 0 731 l 1,18,-1
 146 731 l 1,19,-1
 146 585 l 1,20,-1
 0 585 l 1,17,-1
438 585 m 1,21,-1
 438 731 l 1,22,-1
 585 731 l 1,23,-1
 585 585 l 1,24,-1
 438 585 l 1,21,-1
146 731 m 1,25,26
 146 732 146 732 146 878 c 1,27,-1
 438 878 l 1,28,-1
 438 731 l 1,29,-1
 146 731 l 1,25,26
EndSplineSet
EndChar

StartChar: nine
Encoding: 57 57 26
Width: 731
GlyphClass: 1
Flags: W
LayerCount: 2
Fore
SplineSet
0 0 m 1,0,-1
 0 146 l 1,1,-1
 438 146 l 1,2,-1
 438 0 l 1,3,-1
 0 0 l 1,0,-1
0 438 m 1,4,-1
 0 731 l 1,5,-1
 146 731 l 1,6,7
 146 730 146 730 146 438 c 1,8,-1
 0 438 l 1,4,-1
438 146 m 1,9,-1
 438 292 l 1,10,-1
 146 292 l 1,11,-1
 146 438 l 1,12,-1
 438 438 l 1,13,-1
 438 731 l 1,14,-1
 585 731 l 1,15,-1
 585 146 l 1,16,-1
 438 146 l 1,9,-1
146 731 m 1,17,18
 146 732 146 732 146 878 c 1,19,-1
 438 878 l 1,20,-1
 438 731 l 1,21,-1
 146 731 l 1,17,18
EndSplineSet
EndChar

StartChar: colon
Encoding: 58 58 27
Width: 292
GlyphClass: 1
Flags: W
LayerCount: 2
Fore
SplineSet
0 0 m 1,0,-1
 0 146 l 1,1,-1
 146 146 l 1,2,-1
 146 0 l 1,3,-1
 0 0 l 1,0,-1
0 438 m 1,4,-1
 0 585 l 1,5,-1
 146 585 l 1,6,7
 146 584 146 584 146 438 c 1,8,-1
 0 438 l 1,4,-1
EndSplineSet
EndChar

StartChar: semicolon
Encoding: 59 59 28
Width: 292
GlyphClass: 1
Flags: W
LayerCount: 2
Fore
SplineSet
0 0 m 1,0,-1
 0 292 l 1,1,-1
 146 292 l 1,2,-1
 146 0 l 1,3,-1
 0 0 l 1,0,-1
0 585 m 1,4,-1
 0 731 l 1,5,-1
 146 731 l 1,6,-1
 146 585 l 1,7,-1
 0 585 l 1,4,-1
EndSplineSet
EndChar

StartChar: less
Encoding: 60 60 29
Width: 585
GlyphClass: 1
Flags: W
LayerCount: 2
Fore
SplineSet
292 0 m 1,0,-1
 292 146 l 1,1,-1
 438 146 l 1,2,-1
 438 0 l 1,3,-1
 292 0 l 1,0,-1
146 146 m 1,4,-1
 146 292 l 1,5,-1
 292 292 l 1,6,-1
 292 146 l 1,7,-1
 146 146 l 1,4,-1
0 292 m 1,8,-1
 0 438 l 1,9,-1
 146 438 l 1,10,-1
 146 292 l 1,11,-1
 0 292 l 1,8,-1
146 438 m 1,12,-1
 146 585 l 1,13,-1
 292 585 l 1,14,15
 292 584 292 584 292 438 c 1,16,-1
 146 438 l 1,12,-1
292 585 m 1,17,-1
 292 731 l 1,18,-1
 438 731 l 1,19,-1
 438 585 l 1,20,-1
 292 585 l 1,17,-1
EndSplineSet
EndChar

StartChar: equal
Encoding: 61 61 30
Width: 731
GlyphClass: 1
Flags: W
LayerCount: 2
Fore
SplineSet
0 146 m 1,0,-1
 0 292 l 1,1,-1
 585 292 l 1,2,-1
 585 146 l 1,3,-1
 0 146 l 1,0,-1
0 438 m 1,4,-1
 0 585 l 1,5,-1
 585 585 l 1,6,7
 585 584 585 584 585 438 c 1,8,-1
 0 438 l 1,4,-1
EndSplineSet
EndChar

StartChar: greater
Encoding: 62 62 31
Width: 585
GlyphClass: 1
Flags: W
LayerCount: 2
Fore
SplineSet
0 0 m 1,0,-1
 0 146 l 1,1,-1
 146 146 l 1,2,-1
 146 0 l 1,3,-1
 0 0 l 1,0,-1
146 146 m 1,4,-1
 146 292 l 1,5,-1
 292 292 l 1,6,-1
 292 146 l 1,7,-1
 146 146 l 1,4,-1
292 292 m 1,8,-1
 292 438 l 1,9,-1
 438 438 l 1,10,-1
 438 292 l 1,11,-1
 292 292 l 1,8,-1
146 438 m 1,12,-1
 146 585 l 1,13,-1
 292 585 l 1,14,15
 292 584 292 584 292 438 c 1,16,-1
 146 438 l 1,12,-1
0 585 m 1,17,-1
 0 731 l 1,18,-1
 146 731 l 1,19,-1
 146 585 l 1,20,-1
 0 585 l 1,17,-1
EndSplineSet
EndChar

StartChar: question
Encoding: 63 63 32
Width: 731
GlyphClass: 1
Flags: W
LayerCount: 2
Fore
SplineSet
146 -146 m 1,0,-1
 146 0 l 1,1,-1
 292 0 l 1,2,-1
 292 -146 l 1,3,-1
 146 -146 l 1,0,-1
146 146 m 1,4,-1
 146 438 l 1,5,-1
 438 438 l 1,6,-1
 438 292 l 1,7,-1
 292 292 l 1,8,-1
 292 146 l 1,9,-1
 146 146 l 1,4,-1
438 438 m 1,10,-1
 438 731 l 1,11,-1
 585 731 l 1,12,13
 585 730 585 730 585 438 c 1,14,-1
 438 438 l 1,10,-1
0 731 m 1,15,16
 0 732 0 732 0 878 c 1,17,-1
 438 878 l 1,18,-1
 438 731 l 1,19,-1
 0 731 l 1,15,16
EndSplineSet
EndChar

StartChar: at
Encoding: 64 64 33
Width: 877
GlyphClass: 1
Flags: W
LayerCount: 2
Fore
SplineSet
146 -146 m 1,0,-1
 146 0 l 1,1,-1
 585 0 l 1,2,-1
 585 -146 l 1,3,-1
 146 -146 l 1,0,-1
0 0 m 1,4,-1
 0 731 l 1,5,-1
 146 731 l 1,6,-1
 146 0 l 1,7,-1
 0 0 l 1,4,-1
292 146 m 1,8,-1
 292 438 l 1,9,-1
 585 438 l 1,10,-1
 585 731 l 1,11,-1
 731 731 l 1,12,-1
 731 146 l 1,13,-1
 292 146 l 1,8,-1
146 731 m 1,14,15
 146 732 146 732 146 878 c 1,16,-1
 585 878 l 1,17,-1
 585 731 l 1,18,-1
 146 731 l 1,14,15
EndSplineSet
EndChar

StartChar: A
Encoding: 65 65 34
Width: 731
GlyphClass: 1
Flags: W
LayerCount: 2
Fore
SplineSet
0 0 m 1,0,-1
 0 731 l 1,1,-1
 146 731 l 1,2,3
 146 730 146 730 146 438 c 1,4,-1
 438 438 l 1,5,-1
 438 731 l 1,6,-1
 585 731 l 1,7,-1
 585 0 l 1,8,9
 584 0 584 0 438 0 c 1,10,-1
 438 292 l 1,11,-1
 146 292 l 1,12,-1
 146 0 l 1,13,-1
 0 0 l 1,0,-1
146 731 m 1,14,15
 146 732 146 732 146 878 c 1,16,-1
 438 878 l 1,17,-1
 438 731 l 1,18,-1
 146 731 l 1,14,15
EndSplineSet
EndChar

StartChar: B
Encoding: 66 66 35
Width: 731
GlyphClass: 1
Flags: W
LayerCount: 2
Fore
SplineSet
438 146 m 1,0,-1
 438 438 l 1,1,-1
 585 438 l 1,2,-1
 585 146 l 1,3,-1
 438 146 l 1,0,-1
438 585 m 1,4,-1
 438 731 l 1,5,-1
 585 731 l 1,6,-1
 585 585 l 1,7,-1
 438 585 l 1,4,-1
0 0 m 1,8,-1
 0 878 l 1,9,-1
 438 878 l 1,10,-1
 438 731 l 1,11,-1
 146 731 l 1,12,-1
 146 585 l 1,13,-1
 438 585 l 1,14,15
 438 584 438 584 438 438 c 1,16,-1
 146 438 l 1,17,-1
 146 146 l 1,18,-1
 438 146 l 1,19,-1
 438 0 l 1,20,-1
 0 0 l 1,8,-1
EndSplineSet
EndChar

StartChar: C
Encoding: 67 67 36
Width: 731
GlyphClass: 1
Flags: W
LayerCount: 2
Fore
SplineSet
146 0 m 1,0,-1
 146 146 l 1,1,-1
 438 146 l 1,2,-1
 438 0 l 1,3,-1
 146 0 l 1,0,-1
438 146 m 1,4,-1
 438 292 l 1,5,-1
 585 292 l 1,6,-1
 585 146 l 1,7,-1
 438 146 l 1,4,-1
0 146 m 1,8,-1
 0 731 l 1,9,-1
 146 731 l 1,10,-1
 146 146 l 1,11,-1
 0 146 l 1,8,-1
438 585 m 1,12,-1
 438 731 l 1,13,-1
 585 731 l 1,14,-1
 585 585 l 1,15,-1
 438 585 l 1,12,-1
146 731 m 1,16,17
 146 732 146 732 146 878 c 1,18,-1
 438 878 l 1,19,-1
 438 731 l 1,20,-1
 146 731 l 1,16,17
EndSplineSet
EndChar

StartChar: D
Encoding: 68 68 37
Width: 731
GlyphClass: 1
Flags: W
LayerCount: 2
Fore
SplineSet
438 146 m 1,0,-1
 438 731 l 1,1,-1
 585 731 l 1,2,-1
 585 146 l 1,3,-1
 438 146 l 1,0,-1
0 0 m 1,4,-1
 0 878 l 1,5,-1
 438 878 l 1,6,-1
 438 731 l 1,7,-1
 146 731 l 1,8,-1
 146 146 l 1,9,-1
 438 146 l 1,10,-1
 438 0 l 1,11,-1
 0 0 l 1,4,-1
EndSplineSet
EndChar

StartChar: E
Encoding: 69 69 38
Width: 731
GlyphClass: 1
Flags: W
LayerCount: 2
Fore
SplineSet
0 0 m 1,0,-1
 0 878 l 1,1,-1
 585 878 l 1,2,-1
 585 731 l 1,3,-1
 146 731 l 1,4,-1
 146 585 l 1,5,-1
 438 585 l 1,6,7
 438 584 438 584 438 438 c 1,8,-1
 146 438 l 1,9,-1
 146 146 l 1,10,-1
 585 146 l 1,11,-1
 585 0 l 1,12,-1
 0 0 l 1,0,-1
EndSplineSet
EndChar

StartChar: F
Encoding: 70 70 39
Width: 731
GlyphClass: 1
Flags: W
LayerCount: 2
Fore
SplineSet
0 0 m 1,0,-1
 0 878 l 1,1,-1
 585 878 l 1,2,-1
 585 731 l 1,3,-1
 146 731 l 1,4,-1
 146 585 l 1,5,-1
 438 585 l 1,6,7
 438 584 438 584 438 438 c 1,8,-1
 146 438 l 1,9,-1
 146 0 l 1,10,-1
 0 0 l 1,0,-1
EndSplineSet
EndChar

StartChar: G
Encoding: 71 71 40
Width: 731
GlyphClass: 1
Flags: W
LayerCount: 2
Fore
SplineSet
146 0 m 1,0,-1
 146 146 l 1,1,-1
 438 146 l 1,2,-1
 438 0 l 1,3,-1
 146 0 l 1,0,-1
438 146 m 1,4,-1
 438 292 l 1,5,-1
 292 292 l 1,6,-1
 292 438 l 1,7,-1
 585 438 l 1,8,-1
 585 146 l 1,9,-1
 438 146 l 1,4,-1
0 146 m 1,10,-1
 0 731 l 1,11,-1
 146 731 l 1,12,-1
 146 146 l 1,13,-1
 0 146 l 1,10,-1
438 585 m 1,14,-1
 438 731 l 1,15,-1
 585 731 l 1,16,-1
 585 585 l 1,17,-1
 438 585 l 1,14,-1
146 731 m 1,18,19
 146 732 146 732 146 878 c 1,20,-1
 438 878 l 1,21,-1
 438 731 l 1,22,-1
 146 731 l 1,18,19
EndSplineSet
EndChar

StartChar: H
Encoding: 72 72 41
Width: 731
GlyphClass: 1
Flags: W
LayerCount: 2
Fore
SplineSet
0 0 m 1,0,-1
 0 878 l 1,1,-1
 146 878 l 1,2,-1
 146 585 l 1,3,-1
 438 585 l 1,4,5
 438 586 438 586 438 878 c 1,6,-1
 585 878 l 1,7,-1
 585 0 l 1,8,9
 584 0 584 0 438 0 c 1,10,-1
 438 438 l 1,11,-1
 146 438 l 1,12,-1
 146 0 l 1,13,-1
 0 0 l 1,0,-1
EndSplineSet
EndChar

StartChar: I
Encoding: 73 73 42
Width: 585
GlyphClass: 1
Flags: W
LayerCount: 2
Fore
SplineSet
0 0 m 1,0,-1
 0 146 l 1,1,-1
 146 146 l 1,2,-1
 146 731 l 1,3,-1
 0 731 l 1,4,5
 0 732 0 732 0 878 c 1,6,-1
 438 878 l 1,7,-1
 438 731 l 1,8,-1
 292 731 l 1,9,-1
 292 146 l 1,10,-1
 438 146 l 1,11,-1
 438 0 l 1,12,-1
 0 0 l 1,0,-1
EndSplineSet
EndChar

StartChar: J
Encoding: 74 74 43
Width: 731
GlyphClass: 1
Flags: W
LayerCount: 2
Fore
SplineSet
146 0 m 1,0,-1
 146 146 l 1,1,-1
 438 146 l 1,2,-1
 438 0 l 1,3,-1
 146 0 l 1,0,-1
0 146 m 1,4,-1
 0 292 l 1,5,-1
 146 292 l 1,6,-1
 146 146 l 1,7,-1
 0 146 l 1,4,-1
438 146 m 1,8,-1
 438 731 l 1,9,-1
 146 731 l 1,10,11
 146 732 146 732 146 878 c 1,12,-1
 585 878 l 1,13,-1
 585 146 l 1,14,-1
 438 146 l 1,8,-1
EndSplineSet
EndChar

StartChar: K
Encoding: 75 75 44
Width: 731
GlyphClass: 1
Flags: W
LayerCount: 2
Fore
SplineSet
438 0 m 1,0,-1
 438 146 l 1,1,-1
 585 146 l 1,2,-1
 585 0 l 1,3,-1
 438 0 l 1,0,-1
292 146 m 1,4,-1
 292 438 l 1,5,-1
 438 438 l 1,6,-1
 438 146 l 1,7,-1
 292 146 l 1,4,-1
292 585 m 1,8,-1
 292 731 l 1,9,-1
 438 731 l 1,10,-1
 438 585 l 1,11,-1
 292 585 l 1,8,-1
0 0 m 1,12,-1
 0 878 l 1,13,-1
 146 878 l 1,14,-1
 146 585 l 1,15,-1
 292 585 l 1,16,17
 292 584 292 584 292 438 c 1,18,-1
 146 438 l 1,19,-1
 146 0 l 1,20,-1
 0 0 l 1,12,-1
438 731 m 1,21,22
 438 732 438 732 438 878 c 1,23,-1
 585 878 l 1,24,-1
 585 731 l 1,25,-1
 438 731 l 1,21,22
EndSplineSet
EndChar

StartChar: L
Encoding: 76 76 45
Width: 731
GlyphClass: 1
Flags: W
LayerCount: 2
Fore
SplineSet
0 0 m 1,0,-1
 0 878 l 1,1,-1
 146 878 l 1,2,-1
 146 146 l 1,3,-1
 585 146 l 1,4,-1
 585 0 l 1,5,-1
 0 0 l 1,0,-1
EndSplineSet
EndChar

StartChar: M
Encoding: 77 77 46
Width: 877
GlyphClass: 1
Flags: W
LayerCount: 2
Fore
SplineSet
292 438 m 1,0,-1
 292 585 l 1,1,-1
 438 585 l 1,2,3
 438 584 438 584 438 438 c 1,4,-1
 292 438 l 1,0,-1
0 0 m 1,5,-1
 0 878 l 1,6,-1
 146 878 l 1,7,-1
 146 731 l 1,8,-1
 292 731 l 1,9,-1
 292 585 l 1,10,-1
 146 585 l 1,11,-1
 146 0 l 1,12,-1
 0 0 l 1,5,-1
585 0 m 1,13,-1
 585 585 l 1,14,15
 584 585 584 585 438 585 c 1,16,-1
 438 731 l 1,17,-1
 585 731 l 1,18,19
 585 732 585 732 585 878 c 1,20,-1
 731 878 l 1,21,-1
 731 0 l 1,22,-1
 585 0 l 1,13,-1
EndSplineSet
EndChar

StartChar: N
Encoding: 78 78 47
Width: 877
GlyphClass: 1
Flags: W
LayerCount: 2
Fore
SplineSet
292 438 m 1,0,-1
 292 585 l 1,1,-1
 438 585 l 1,2,3
 438 584 438 584 438 438 c 1,4,-1
 292 438 l 1,0,-1
0 0 m 1,5,-1
 0 878 l 1,6,-1
 146 878 l 1,7,-1
 146 731 l 1,8,-1
 292 731 l 1,9,-1
 292 585 l 1,10,-1
 146 585 l 1,11,-1
 146 0 l 1,12,-1
 0 0 l 1,5,-1
585 0 m 1,13,-1
 585 292 l 1,14,15
 584 292 584 292 438 292 c 1,16,-1
 438 438 l 1,17,-1
 585 438 l 1,18,-1
 585 878 l 1,19,-1
 731 878 l 1,20,-1
 731 0 l 1,21,-1
 585 0 l 1,13,-1
EndSplineSet
EndChar

StartChar: O
Encoding: 79 79 48
Width: 877
GlyphClass: 1
Flags: W
LayerCount: 2
Fore
SplineSet
146 0 m 1,0,-1
 146 146 l 1,1,-1
 585 146 l 1,2,-1
 585 0 l 1,3,-1
 146 0 l 1,0,-1
0 146 m 1,4,-1
 0 731 l 1,5,-1
 146 731 l 1,6,-1
 146 146 l 1,7,-1
 0 146 l 1,4,-1
585 146 m 1,8,-1
 585 731 l 1,9,-1
 731 731 l 1,10,-1
 731 146 l 1,11,-1
 585 146 l 1,8,-1
146 731 m 1,12,13
 146 732 146 732 146 878 c 1,14,-1
 585 878 l 1,15,-1
 585 731 l 1,16,-1
 146 731 l 1,12,13
EndSplineSet
EndChar

StartChar: P
Encoding: 80 80 49
Width: 731
GlyphClass: 1
Flags: W
LayerCount: 2
Fore
SplineSet
438 438 m 1,0,-1
 438 731 l 1,1,-1
 585 731 l 1,2,3
 585 730 585 730 585 438 c 1,4,-1
 438 438 l 1,0,-1
0 0 m 1,5,-1
 0 878 l 1,6,-1
 438 878 l 1,7,-1
 438 731 l 1,8,-1
 146 731 l 1,9,10
 146 730 146 730 146 438 c 1,11,-1
 438 438 l 1,12,-1
 438 292 l 1,13,-1
 146 292 l 1,14,-1
 146 0 l 1,15,-1
 0 0 l 1,5,-1
EndSplineSet
EndChar

StartChar: Q
Encoding: 81 81 50
Width: 877
GlyphClass: 1
Flags: W
LayerCount: 2
Fore
SplineSet
146 0 m 1,0,-1
 146 146 l 1,1,-1
 438 146 l 1,2,-1
 438 0 l 1,3,-1
 146 0 l 1,0,-1
585 0 m 1,4,-1
 585 146 l 1,5,-1
 731 146 l 1,6,-1
 731 0 l 1,7,-1
 585 0 l 1,4,-1
0 146 m 1,8,-1
 0 731 l 1,9,-1
 146 731 l 1,10,-1
 146 146 l 1,11,-1
 0 146 l 1,8,-1
438 146 m 1,12,-1
 438 731 l 1,13,-1
 585 731 l 1,14,-1
 585 146 l 1,15,-1
 438 146 l 1,12,-1
146 731 m 1,16,17
 146 732 146 732 146 878 c 1,18,-1
 438 878 l 1,19,-1
 438 731 l 1,20,-1
 146 731 l 1,16,17
EndSplineSet
EndChar

StartChar: R
Encoding: 82 82 51
Width: 731
GlyphClass: 1
Flags: W
LayerCount: 2
Fore
SplineSet
438 0 m 1,0,-1
 438 292 l 1,1,-1
 585 292 l 1,2,-1
 585 0 l 1,3,-1
 438 0 l 1,0,-1
438 438 m 1,4,-1
 438 731 l 1,5,-1
 585 731 l 1,6,7
 585 730 585 730 585 438 c 1,8,-1
 438 438 l 1,4,-1
0 0 m 1,9,-1
 0 878 l 1,10,-1
 438 878 l 1,11,-1
 438 731 l 1,12,-1
 146 731 l 1,13,14
 146 730 146 730 146 438 c 1,15,-1
 438 438 l 1,16,-1
 438 292 l 1,17,-1
 146 292 l 1,18,-1
 146 0 l 1,19,-1
 0 0 l 1,9,-1
EndSplineSet
EndChar

StartChar: S
Encoding: 83 83 52
Width: 731
GlyphClass: 1
Flags: W
LayerCount: 2
Fore
SplineSet
0 0 m 1,0,-1
 0 146 l 1,1,-1
 438 146 l 1,2,-1
 438 0 l 1,3,-1
 0 0 l 1,0,-1
438 146 m 1,4,-1
 438 438 l 1,5,-1
 585 438 l 1,6,-1
 585 146 l 1,7,-1
 438 146 l 1,4,-1
146 438 m 1,8,-1
 146 585 l 1,9,-1
 438 585 l 1,10,11
 438 584 438 584 438 438 c 1,12,-1
 146 438 l 1,8,-1
0 585 m 1,13,-1
 0 731 l 1,14,-1
 146 731 l 1,15,-1
 146 585 l 1,16,-1
 0 585 l 1,13,-1
146 731 m 1,17,18
 146 732 146 732 146 878 c 1,19,-1
 585 878 l 1,20,-1
 585 731 l 1,21,-1
 146 731 l 1,17,18
EndSplineSet
EndChar

StartChar: T
Encoding: 84 84 53
Width: 877
GlyphClass: 1
Flags: W
LayerCount: 2
Fore
SplineSet
292 0 m 1,0,-1
 292 731 l 1,1,-1
 0 731 l 1,2,3
 0 732 0 732 0 878 c 1,4,-1
 731 878 l 1,5,-1
 731 731 l 1,6,7
 730 731 730 731 438 731 c 1,8,-1
 438 0 l 1,9,-1
 292 0 l 1,0,-1
EndSplineSet
EndChar

StartChar: U
Encoding: 85 85 54
Width: 877
GlyphClass: 1
Flags: W
LayerCount: 2
Fore
SplineSet
146 0 m 1,0,-1
 146 146 l 1,1,-1
 585 146 l 1,2,-1
 585 0 l 1,3,-1
 146 0 l 1,0,-1
0 146 m 1,4,-1
 0 878 l 1,5,-1
 146 878 l 1,6,-1
 146 146 l 1,7,-1
 0 146 l 1,4,-1
585 146 m 1,8,-1
 585 878 l 1,9,-1
 731 878 l 1,10,-1
 731 146 l 1,11,-1
 585 146 l 1,8,-1
EndSplineSet
EndChar

StartChar: V
Encoding: 86 86 55
Width: 877
GlyphClass: 1
Flags: W
LayerCount: 2
Fore
SplineSet
292 0 m 1,0,-1
 292 292 l 1,1,-1
 438 292 l 1,2,-1
 438 0 l 1,3,-1
 292 0 l 1,0,-1
146 292 m 1,4,-1
 146 585 l 1,5,-1
 292 585 l 1,6,7
 292 584 292 584 292 292 c 1,8,-1
 146 292 l 1,4,-1
438 292 m 1,9,-1
 438 585 l 1,10,-1
 585 585 l 1,11,12
 585 584 585 584 585 292 c 1,13,-1
 438 292 l 1,9,-1
0 585 m 1,14,15
 0 586 0 586 0 878 c 1,16,-1
 146 878 l 1,17,-1
 146 585 l 1,18,-1
 0 585 l 1,14,15
585 585 m 1,19,20
 585 586 585 586 585 878 c 1,21,-1
 731 878 l 1,22,-1
 731 585 l 1,23,-1
 585 585 l 1,19,20
EndSplineSet
EndChar

StartChar: W
Encoding: 87 87 56
Width: 877
GlyphClass: 1
Flags: W
LayerCount: 2
Fore
SplineSet
146 0 m 1,0,-1
 146 146 l 1,1,-1
 292 146 l 1,2,-1
 292 0 l 1,3,-1
 146 0 l 1,0,-1
438 0 m 1,4,-1
 438 146 l 1,5,-1
 585 146 l 1,6,-1
 585 0 l 1,7,-1
 438 0 l 1,4,-1
292 146 m 1,8,-1
 292 731 l 1,9,-1
 438 731 l 1,10,-1
 438 146 l 1,11,-1
 292 146 l 1,8,-1
0 146 m 1,12,-1
 0 878 l 1,13,-1
 146 878 l 1,14,-1
 146 146 l 1,15,-1
 0 146 l 1,12,-1
585 146 m 1,16,-1
 585 878 l 1,17,-1
 731 878 l 1,18,-1
 731 146 l 1,19,-1
 585 146 l 1,16,-1
EndSplineSet
EndChar

StartChar: X
Encoding: 88 88 57
Width: 877
GlyphClass: 1
Flags: W
LayerCount: 2
Fore
SplineSet
0 0 m 1,0,-1
 0 292 l 1,1,-1
 146 292 l 1,2,-1
 146 0 l 1,3,-1
 0 0 l 1,0,-1
585 0 m 1,4,-1
 585 292 l 1,5,-1
 731 292 l 1,6,-1
 731 0 l 1,7,-1
 585 0 l 1,4,-1
146 292 m 1,8,-1
 146 438 l 1,9,-1
 292 438 l 1,10,-1
 292 292 l 1,11,-1
 146 292 l 1,8,-1
438 292 m 1,12,-1
 438 438 l 1,13,-1
 585 438 l 1,14,-1
 585 292 l 1,15,-1
 438 292 l 1,12,-1
292 438 m 1,16,-1
 292 585 l 1,17,-1
 438 585 l 1,18,19
 438 584 438 584 438 438 c 1,20,-1
 292 438 l 1,16,-1
146 585 m 1,21,-1
 146 731 l 1,22,-1
 292 731 l 1,23,-1
 292 585 l 1,24,-1
 146 585 l 1,21,-1
438 585 m 1,25,-1
 438 731 l 1,26,-1
 585 731 l 1,27,-1
 585 585 l 1,28,-1
 438 585 l 1,25,-1
0 731 m 1,29,30
 0 732 0 732 0 878 c 1,31,-1
 146 878 l 1,32,-1
 146 731 l 1,33,-1
 0 731 l 1,29,30
585 731 m 1,34,35
 585 732 585 732 585 878 c 1,36,-1
 731 878 l 1,37,-1
 731 731 l 1,38,-1
 585 731 l 1,34,35
EndSplineSet
EndChar

StartChar: Y
Encoding: 89 89 58
Width: 877
GlyphClass: 1
Flags: W
LayerCount: 2
Fore
SplineSet
292 0 m 1,0,-1
 292 438 l 1,1,-1
 438 438 l 1,2,-1
 438 0 l 1,3,-1
 292 0 l 1,0,-1
146 438 m 1,4,-1
 146 585 l 1,5,-1
 292 585 l 1,6,7
 292 584 292 584 292 438 c 1,8,-1
 146 438 l 1,4,-1
438 438 m 1,9,-1
 438 585 l 1,10,-1
 585 585 l 1,11,12
 585 584 585 584 585 438 c 1,13,-1
 438 438 l 1,9,-1
0 585 m 1,14,15
 0 586 0 586 0 878 c 1,16,-1
 146 878 l 1,17,-1
 146 585 l 1,18,-1
 0 585 l 1,14,15
585 585 m 1,19,20
 585 586 585 586 585 878 c 1,21,-1
 731 878 l 1,22,-1
 731 585 l 1,23,-1
 585 585 l 1,19,20
EndSplineSet
EndChar

StartChar: Z
Encoding: 90 90 59
Width: 731
GlyphClass: 1
Flags: W
LayerCount: 2
Fore
SplineSet
0 0 m 1,0,-1
 0 292 l 1,1,-1
 146 292 l 1,2,-1
 146 146 l 1,3,-1
 585 146 l 1,4,-1
 585 0 l 1,5,-1
 0 0 l 1,0,-1
146 292 m 1,6,-1
 146 438 l 1,7,-1
 292 438 l 1,8,-1
 292 292 l 1,9,-1
 146 292 l 1,6,-1
292 438 m 1,10,-1
 292 585 l 1,11,-1
 438 585 l 1,12,13
 438 584 438 584 438 438 c 1,14,-1
 292 438 l 1,10,-1
438 585 m 1,15,-1
 438 731 l 1,16,-1
 0 731 l 1,17,18
 0 732 0 732 0 878 c 1,19,-1
 585 878 l 1,20,-1
 585 585 l 1,21,-1
 438 585 l 1,15,-1
EndSplineSet
EndChar

StartChar: bracketleft
Encoding: 91 91 60
Width: 438
GlyphClass: 1
Flags: W
LayerCount: 2
Fore
SplineSet
0 -146 m 1,0,-1
 0 878 l 1,1,-1
 292 878 l 1,2,-1
 292 731 l 1,3,-1
 146 731 l 1,4,-1
 146 0 l 1,5,-1
 292 0 l 1,6,-1
 292 -146 l 1,7,-1
 0 -146 l 1,0,-1
EndSplineSet
EndChar

StartChar: backslash
Encoding: 92 92 61
Width: 585
GlyphClass: 1
Flags: W
LayerCount: 2
Fore
SplineSet
292 0 m 1,0,-1
 292 292 l 1,1,-1
 438 292 l 1,2,-1
 438 0 l 1,3,-1
 292 0 l 1,0,-1
146 292 m 1,4,-1
 146 585 l 1,5,-1
 292 585 l 1,6,7
 292 584 292 584 292 292 c 1,8,-1
 146 292 l 1,4,-1
0 585 m 1,9,10
 0 586 0 586 0 878 c 1,11,-1
 146 878 l 1,12,-1
 146 585 l 1,13,-1
 0 585 l 1,9,10
EndSplineSet
EndChar

StartChar: bracketright
Encoding: 93 93 62
Width: 438
GlyphClass: 1
Flags: W
LayerCount: 2
Fore
SplineSet
0 -146 m 1,0,-1
 0 0 l 1,1,-1
 146 0 l 1,2,-1
 146 731 l 1,3,-1
 0 731 l 1,4,5
 0 732 0 732 0 878 c 1,6,-1
 292 878 l 1,7,-1
 292 -146 l 1,8,-1
 0 -146 l 1,0,-1
EndSplineSet
EndChar

StartChar: asciicircum
Encoding: 94 94 63
Width: 877
GlyphClass: 1
Flags: W
LayerCount: 2
Fore
SplineSet
0 438 m 1,0,-1
 0 585 l 1,1,-1
 146 585 l 1,2,3
 146 584 146 584 146 438 c 1,4,-1
 0 438 l 1,0,-1
585 438 m 1,5,-1
 585 585 l 1,6,-1
 731 585 l 1,7,8
 731 584 731 584 731 438 c 1,9,-1
 585 438 l 1,5,-1
146 585 m 1,10,-1
 146 731 l 1,11,-1
 292 731 l 1,12,-1
 292 585 l 1,13,-1
 146 585 l 1,10,-1
438 585 m 1,14,-1
 438 731 l 1,15,-1
 585 731 l 1,16,-1
 585 585 l 1,17,-1
 438 585 l 1,14,-1
292 731 m 1,18,19
 292 732 292 732 292 878 c 1,20,-1
 438 878 l 1,21,-1
 438 731 l 1,22,-1
 292 731 l 1,18,19
EndSplineSet
EndChar

StartChar: underscore
Encoding: 95 95 64
Width: 731
GlyphClass: 1
Flags: W
LayerCount: 2
Fore
SplineSet
0 -146 m 1,0,-1
 0 0 l 1,1,-1
 585 0 l 1,2,-1
 585 -146 l 1,3,-1
 0 -146 l 1,0,-1
EndSplineSet
EndChar

StartChar: grave
Encoding: 96 96 65
Width: 438
GlyphClass: 1
Flags: W
LayerCount: 2
Fore
SplineSet
146 585 m 1,0,-1
 146 731 l 1,1,-1
 292 731 l 1,2,-1
 292 585 l 1,3,-1
 146 585 l 1,0,-1
0 731 m 1,4,5
 0 732 0 732 0 878 c 1,6,-1
 146 878 l 1,7,-1
 146 731 l 1,8,-1
 0 731 l 1,4,5
EndSplineSet
EndChar

StartChar: a
Encoding: 97 97 66
Width: 731
GlyphClass: 1
Flags: W
LayerCount: 2
Fore
SplineSet
0 146 m 1,0,-1
 0 585 l 1,1,-1
 146 585 l 1,2,-1
 146 146 l 1,3,-1
 0 146 l 1,0,-1
146 0 m 1,4,-1
 146 146 l 1,5,-1
 438 146 l 1,6,-1
 438 585 l 1,7,-1
 146 585 l 1,8,-1
 146 731 l 1,9,-1
 585 731 l 1,10,-1
 585 0 l 1,11,-1
 146 0 l 1,4,-1
EndSplineSet
EndChar

StartChar: b
Encoding: 98 98 67
Width: 731
GlyphClass: 1
Flags: W
LayerCount: 2
Fore
SplineSet
438 146 m 1,0,-1
 438 585 l 1,1,-1
 585 585 l 1,2,-1
 585 146 l 1,3,-1
 438 146 l 1,0,-1
0 0 m 1,4,-1
 0 878 l 1,5,-1
 146 878 l 1,6,-1
 146 731 l 1,7,-1
 438 731 l 1,8,-1
 438 585 l 1,9,-1
 146 585 l 1,10,-1
 146 146 l 1,11,-1
 438 146 l 1,12,-1
 438 0 l 1,13,-1
 0 0 l 1,4,-1
EndSplineSet
EndChar

StartChar: c
Encoding: 99 99 68
Width: 731
GlyphClass: 1
Flags: W
LayerCount: 2
Fore
SplineSet
146 0 m 1,0,-1
 146 146 l 1,1,-1
 438 146 l 1,2,-1
 438 0 l 1,3,-1
 146 0 l 1,0,-1
438 146 m 1,4,-1
 438 292 l 1,5,-1
 585 292 l 1,6,-1
 585 146 l 1,7,-1
 438 146 l 1,4,-1
0 146 m 1,8,-1
 0 585 l 1,9,-1
 146 585 l 1,10,-1
 146 146 l 1,11,-1
 0 146 l 1,8,-1
438 438 m 1,12,-1
 438 585 l 1,13,-1
 585 585 l 1,14,15
 585 584 585 584 585 438 c 1,16,-1
 438 438 l 1,12,-1
146 585 m 1,17,-1
 146 731 l 1,18,-1
 438 731 l 1,19,-1
 438 585 l 1,20,-1
 146 585 l 1,17,-1
EndSplineSet
EndChar

StartChar: d
Encoding: 100 100 69
Width: 731
GlyphClass: 1
Flags: W
LayerCount: 2
Fore
SplineSet
0 146 m 1,0,-1
 0 585 l 1,1,-1
 146 585 l 1,2,-1
 146 146 l 1,3,-1
 0 146 l 1,0,-1
146 0 m 1,4,-1
 146 146 l 1,5,-1
 438 146 l 1,6,-1
 438 585 l 1,7,-1
 146 585 l 1,8,-1
 146 731 l 1,9,-1
 438 731 l 1,10,11
 438 732 438 732 438 878 c 1,12,-1
 585 878 l 1,13,-1
 585 0 l 1,14,-1
 146 0 l 1,4,-1
EndSplineSet
EndChar

StartChar: e
Encoding: 101 101 70
Width: 731
GlyphClass: 1
Flags: W
LayerCount: 2
Fore
SplineSet
146 0 m 1,0,-1
 146 146 l 1,1,-1
 585 146 l 1,2,-1
 585 0 l 1,3,-1
 146 0 l 1,0,-1
0 146 m 1,4,-1
 0 585 l 1,5,-1
 146 585 l 1,6,7
 146 584 146 584 146 438 c 1,8,-1
 438 438 l 1,9,-1
 438 585 l 1,10,-1
 585 585 l 1,11,12
 585 584 585 584 585 292 c 1,13,-1
 146 292 l 1,14,-1
 146 146 l 1,15,-1
 0 146 l 1,4,-1
146 585 m 1,16,-1
 146 731 l 1,17,-1
 438 731 l 1,18,-1
 438 585 l 1,19,-1
 146 585 l 1,16,-1
EndSplineSet
EndChar

StartChar: f
Encoding: 102 102 71
Width: 585
GlyphClass: 1
Flags: W
LayerCount: 2
Fore
SplineSet
0 0 m 1,0,-1
 0 731 l 1,1,-1
 146 731 l 1,2,3
 146 730 146 730 146 438 c 1,4,-1
 438 438 l 1,5,-1
 438 292 l 1,6,-1
 146 292 l 1,7,-1
 146 0 l 1,8,-1
 0 0 l 1,0,-1
146 731 m 1,9,10
 146 732 146 732 146 878 c 1,11,-1
 438 878 l 1,12,-1
 438 731 l 1,13,-1
 146 731 l 1,9,10
EndSplineSet
EndChar

StartChar: g
Encoding: 103 103 72
Width: 731
GlyphClass: 1
Flags: W
LayerCount: 2
Fore
SplineSet
0 -146 m 1,0,-1
 0 0 l 1,1,-1
 438 0 l 1,2,-1
 438 -146 l 1,3,-1
 0 -146 l 1,0,-1
0 292 m 1,4,-1
 0 585 l 1,5,-1
 146 585 l 1,6,7
 146 584 146 584 146 292 c 1,8,-1
 0 292 l 1,4,-1
438 0 m 1,9,-1
 438 146 l 1,10,-1
 146 146 l 1,11,-1
 146 292 l 1,12,-1
 438 292 l 1,13,-1
 438 585 l 1,14,-1
 146 585 l 1,15,-1
 146 731 l 1,16,-1
 585 731 l 1,17,-1
 585 0 l 1,18,-1
 438 0 l 1,9,-1
EndSplineSet
EndChar

StartChar: h
Encoding: 104 104 73
Width: 731
GlyphClass: 1
Flags: W
LayerCount: 2
Fore
SplineSet
438 0 m 1,0,-1
 438 438 l 1,1,-1
 585 438 l 1,2,-1
 585 0 l 1,3,-1
 438 0 l 1,0,-1
0 0 m 1,4,-1
 0 878 l 1,5,-1
 146 878 l 1,6,-1
 146 585 l 1,7,-1
 438 585 l 1,8,9
 438 584 438 584 438 438 c 1,10,-1
 146 438 l 1,11,-1
 146 0 l 1,12,-1
 0 0 l 1,4,-1
EndSplineSet
EndChar

StartChar: i
Encoding: 105 105 74
Width: 292
GlyphClass: 1
Flags: W
LayerCount: 2
Fore
SplineSet
0 0 m 1,0,-1
 0 585 l 1,1,-1
 146 585 l 1,2,-1
 146 0 l 1,3,-1
 0 0 l 1,0,-1
0 731 m 1,4,5
 0 732 0 732 0 878 c 1,6,-1
 146 878 l 1,7,-1
 146 731 l 1,8,-1
 0 731 l 1,4,5
EndSplineSet
EndChar

StartChar: j
Encoding: 106 106 75
Width: 585
GlyphClass: 1
Flags: W
LayerCount: 2
Fore
SplineSet
0 0 m 1,0,-1
 0 146 l 1,1,-1
 292 146 l 1,2,-1
 292 0 l 1,3,-1
 0 0 l 1,0,-1
292 146 m 1,4,-1
 292 438 l 1,5,-1
 146 438 l 1,6,-1
 146 585 l 1,7,-1
 438 585 l 1,8,-1
 438 146 l 1,9,-1
 292 146 l 1,4,-1
292 731 m 1,10,11
 292 732 292 732 292 878 c 1,12,-1
 438 878 l 1,13,-1
 438 731 l 1,14,-1
 292 731 l 1,10,11
EndSplineSet
EndChar

StartChar: k
Encoding: 107 107 76
Width: 731
GlyphClass: 1
Flags: W
LayerCount: 2
Fore
SplineSet
438 0 m 1,0,-1
 438 146 l 1,1,-1
 585 146 l 1,2,-1
 585 0 l 1,3,-1
 438 0 l 1,0,-1
292 146 m 1,4,-1
 292 292 l 1,5,-1
 438 292 l 1,6,-1
 438 146 l 1,7,-1
 292 146 l 1,4,-1
292 438 m 1,8,-1
 292 585 l 1,9,-1
 438 585 l 1,10,11
 438 584 438 584 438 438 c 1,12,-1
 292 438 l 1,8,-1
438 585 m 1,13,-1
 438 731 l 1,14,-1
 585 731 l 1,15,-1
 585 585 l 1,16,-1
 438 585 l 1,13,-1
0 0 m 1,17,-1
 0 878 l 1,18,-1
 146 878 l 1,19,-1
 146 438 l 1,20,-1
 292 438 l 1,21,-1
 292 292 l 1,22,-1
 146 292 l 1,23,-1
 146 0 l 1,24,-1
 0 0 l 1,17,-1
EndSplineSet
EndChar

StartChar: l
Encoding: 108 108 77
Width: 292
GlyphClass: 1
Flags: W
LayerCount: 2
Fore
SplineSet
0 0 m 1,0,-1
 0 878 l 1,1,-1
 146 878 l 1,2,-1
 146 0 l 1,3,-1
 0 0 l 1,0,-1
EndSplineSet
EndChar

StartChar: m
Encoding: 109 109 78
Width: 877
GlyphClass: 1
Flags: W
LayerCount: 2
Fore
SplineSet
585 0 m 1,0,-1
 585 585 l 1,1,-1
 731 585 l 1,2,-1
 731 0 l 1,3,-1
 585 0 l 1,0,-1
0 0 m 1,4,-1
 0 731 l 1,5,-1
 585 731 l 1,6,-1
 585 585 l 1,7,8
 584 585 584 585 438 585 c 1,9,-1
 438 0 l 1,10,-1
 292 0 l 1,11,-1
 292 585 l 1,12,-1
 146 585 l 1,13,-1
 146 0 l 1,14,-1
 0 0 l 1,4,-1
EndSplineSet
EndChar

StartChar: n
Encoding: 110 110 79
Width: 731
GlyphClass: 1
Flags: W
LayerCount: 2
Fore
SplineSet
438 0 m 1,0,-1
 438 585 l 1,1,-1
 585 585 l 1,2,-1
 585 0 l 1,3,-1
 438 0 l 1,0,-1
0 0 m 1,4,-1
 0 731 l 1,5,-1
 438 731 l 1,6,-1
 438 585 l 1,7,-1
 146 585 l 1,8,-1
 146 0 l 1,9,-1
 0 0 l 1,4,-1
EndSplineSet
EndChar

StartChar: o
Encoding: 111 111 80
Width: 731
GlyphClass: 1
Flags: W
LayerCount: 2
Fore
SplineSet
146 0 m 1,0,-1
 146 146 l 1,1,-1
 438 146 l 1,2,-1
 438 0 l 1,3,-1
 146 0 l 1,0,-1
0 146 m 1,4,-1
 0 585 l 1,5,-1
 146 585 l 1,6,-1
 146 146 l 1,7,-1
 0 146 l 1,4,-1
438 146 m 1,8,-1
 438 585 l 1,9,-1
 585 585 l 1,10,-1
 585 146 l 1,11,-1
 438 146 l 1,8,-1
146 585 m 1,12,-1
 146 731 l 1,13,-1
 438 731 l 1,14,-1
 438 585 l 1,15,-1
 146 585 l 1,12,-1
EndSplineSet
EndChar

StartChar: p
Encoding: 112 112 81
Width: 731
GlyphClass: 1
Flags: W
LayerCount: 2
Fore
SplineSet
438 292 m 1,0,-1
 438 585 l 1,1,-1
 585 585 l 1,2,3
 585 584 585 584 585 292 c 1,4,-1
 438 292 l 1,0,-1
0 -146 m 1,5,-1
 0 731 l 1,6,-1
 438 731 l 1,7,-1
 438 585 l 1,8,-1
 146 585 l 1,9,10
 146 584 146 584 146 292 c 1,11,-1
 438 292 l 1,12,-1
 438 146 l 1,13,-1
 146 146 l 1,14,-1
 146 -146 l 1,15,-1
 0 -146 l 1,5,-1
EndSplineSet
EndChar

StartChar: q
Encoding: 113 113 82
Width: 731
GlyphClass: 1
Flags: W
LayerCount: 2
Fore
SplineSet
0 292 m 1,0,-1
 0 585 l 1,1,-1
 146 585 l 1,2,3
 146 584 146 584 146 292 c 1,4,-1
 0 292 l 1,0,-1
438 -146 m 1,5,-1
 438 146 l 1,6,-1
 146 146 l 1,7,-1
 146 292 l 1,8,-1
 438 292 l 1,9,-1
 438 585 l 1,10,-1
 146 585 l 1,11,-1
 146 731 l 1,12,-1
 585 731 l 1,13,-1
 585 -146 l 1,14,-1
 438 -146 l 1,5,-1
EndSplineSet
EndChar

StartChar: r
Encoding: 114 114 83
Width: 731
GlyphClass: 1
Flags: W
LayerCount: 2
Fore
SplineSet
438 438 m 1,0,-1
 438 585 l 1,1,-1
 585 585 l 1,2,3
 585 584 585 584 585 438 c 1,4,-1
 438 438 l 1,0,-1
0 0 m 1,5,-1
 0 731 l 1,6,-1
 438 731 l 1,7,-1
 438 585 l 1,8,-1
 146 585 l 1,9,-1
 146 0 l 1,10,-1
 0 0 l 1,5,-1
EndSplineSet
EndChar

StartChar: s
Encoding: 115 115 84
Width: 585
GlyphClass: 1
Flags: W
LayerCount: 2
Fore
SplineSet
0 0 m 1,0,-1
 0 146 l 1,1,-1
 292 146 l 1,2,-1
 292 0 l 1,3,-1
 0 0 l 1,0,-1
292 146 m 1,4,-1
 292 292 l 1,5,-1
 438 292 l 1,6,-1
 438 146 l 1,7,-1
 292 146 l 1,4,-1
146 292 m 1,8,-1
 146 438 l 1,9,-1
 292 438 l 1,10,-1
 292 292 l 1,11,-1
 146 292 l 1,8,-1
0 438 m 1,12,-1
 0 585 l 1,13,-1
 146 585 l 1,14,15
 146 584 146 584 146 438 c 1,16,-1
 0 438 l 1,12,-1
146 585 m 1,17,-1
 146 731 l 1,18,-1
 438 731 l 1,19,-1
 438 585 l 1,20,-1
 146 585 l 1,17,-1
EndSplineSet
EndChar

StartChar: t
Encoding: 116 116 85
Width: 585
GlyphClass: 1
Flags: W
LayerCount: 2
Fore
SplineSet
146 0 m 1,0,-1
 146 146 l 1,1,-1
 438 146 l 1,2,-1
 438 0 l 1,3,-1
 146 0 l 1,0,-1
0 146 m 1,4,-1
 0 878 l 1,5,-1
 146 878 l 1,6,-1
 146 585 l 1,7,-1
 438 585 l 1,8,9
 438 584 438 584 438 438 c 1,10,-1
 146 438 l 1,11,-1
 146 146 l 1,12,-1
 0 146 l 1,4,-1
EndSplineSet
EndChar

StartChar: u
Encoding: 117 117 86
Width: 731
GlyphClass: 1
Flags: W
LayerCount: 2
Fore
SplineSet
0 146 m 1,0,-1
 0 731 l 1,1,-1
 146 731 l 1,2,-1
 146 146 l 1,3,-1
 0 146 l 1,0,-1
146 0 m 1,4,-1
 146 146 l 1,5,-1
 438 146 l 1,6,-1
 438 731 l 1,7,-1
 585 731 l 1,8,-1
 585 0 l 1,9,-1
 146 0 l 1,4,-1
EndSplineSet
EndChar

StartChar: v
Encoding: 118 118 87
Width: 877
GlyphClass: 1
Flags: W
LayerCount: 2
Fore
SplineSet
292 0 m 1,0,-1
 292 146 l 1,1,-1
 438 146 l 1,2,-1
 438 0 l 1,3,-1
 292 0 l 1,0,-1
146 146 m 1,4,-1
 146 438 l 1,5,-1
 292 438 l 1,6,-1
 292 146 l 1,7,-1
 146 146 l 1,4,-1
438 146 m 1,8,-1
 438 438 l 1,9,-1
 585 438 l 1,10,-1
 585 146 l 1,11,-1
 438 146 l 1,8,-1
0 438 m 1,12,-1
 0 731 l 1,13,-1
 146 731 l 1,14,15
 146 730 146 730 146 438 c 1,16,-1
 0 438 l 1,12,-1
585 438 m 1,17,-1
 585 731 l 1,18,-1
 731 731 l 1,19,20
 731 730 731 730 731 438 c 1,21,-1
 585 438 l 1,17,-1
EndSplineSet
EndChar

StartChar: w
Encoding: 119 119 88
Width: 877
GlyphClass: 1
Flags: W
LayerCount: 2
Fore
SplineSet
146 0 m 1,0,-1
 146 292 l 1,1,-1
 292 292 l 1,2,-1
 292 0 l 1,3,-1
 146 0 l 1,0,-1
438 0 m 1,4,-1
 438 292 l 1,5,-1
 585 292 l 1,6,-1
 585 0 l 1,7,-1
 438 0 l 1,4,-1
292 292 m 1,8,-1
 292 585 l 1,9,-1
 438 585 l 1,10,11
 438 584 438 584 438 292 c 1,12,-1
 292 292 l 1,8,-1
0 292 m 1,13,-1
 0 731 l 1,14,-1
 146 731 l 1,15,16
 146 730 146 730 146 292 c 1,17,-1
 0 292 l 1,13,-1
585 292 m 1,18,-1
 585 731 l 1,19,-1
 731 731 l 1,20,21
 731 730 731 730 731 292 c 1,22,-1
 585 292 l 1,18,-1
EndSplineSet
EndChar

StartChar: x
Encoding: 120 120 89
Width: 877
GlyphClass: 1
Flags: W
LayerCount: 2
Fore
SplineSet
0 0 m 1,0,-1
 0 146 l 1,1,-1
 146 146 l 1,2,-1
 146 0 l 1,3,-1
 0 0 l 1,0,-1
585 0 m 1,4,-1
 585 146 l 1,5,-1
 731 146 l 1,6,-1
 731 0 l 1,7,-1
 585 0 l 1,4,-1
146 146 m 1,8,-1
 146 292 l 1,9,-1
 292 292 l 1,10,-1
 292 146 l 1,11,-1
 146 146 l 1,8,-1
438 146 m 1,12,-1
 438 292 l 1,13,-1
 585 292 l 1,14,-1
 585 146 l 1,15,-1
 438 146 l 1,12,-1
292 292 m 1,16,-1
 292 438 l 1,17,-1
 438 438 l 1,18,-1
 438 292 l 1,19,-1
 292 292 l 1,16,-1
146 438 m 1,20,-1
 146 585 l 1,21,-1
 292 585 l 1,22,23
 292 584 292 584 292 438 c 1,24,-1
 146 438 l 1,20,-1
438 438 m 1,25,-1
 438 585 l 1,26,-1
 585 585 l 1,27,28
 585 584 585 584 585 438 c 1,29,-1
 438 438 l 1,25,-1
0 585 m 1,30,-1
 0 731 l 1,31,-1
 146 731 l 1,32,-1
 146 585 l 1,33,-1
 0 585 l 1,30,-1
585 585 m 1,34,-1
 585 731 l 1,35,-1
 731 731 l 1,36,-1
 731 585 l 1,37,-1
 585 585 l 1,34,-1
EndSplineSet
EndChar

StartChar: y
Encoding: 121 121 90
Width: 731
GlyphClass: 1
Flags: W
LayerCount: 2
Fore
SplineSet
0 -146 m 1,0,-1
 0 0 l 1,1,-1
 438 0 l 1,2,-1
 438 -146 l 1,3,-1
 0 -146 l 1,0,-1
0 292 m 1,4,-1
 0 731 l 1,5,-1
 146 731 l 1,6,7
 146 730 146 730 146 292 c 1,8,-1
 0 292 l 1,4,-1
438 0 m 1,9,-1
 438 146 l 1,10,-1
 146 146 l 1,11,-1
 146 292 l 1,12,-1
 438 292 l 1,13,-1
 438 731 l 1,14,-1
 585 731 l 1,15,-1
 585 0 l 1,16,-1
 438 0 l 1,9,-1
EndSplineSet
EndChar

StartChar: z
Encoding: 122 122 91
Width: 731
GlyphClass: 1
Flags: W
LayerCount: 2
Fore
SplineSet
0 0 m 1,0,-1
 0 146 l 1,1,-1
 146 146 l 1,2,-1
 146 292 l 1,3,-1
 292 292 l 1,4,-1
 292 146 l 1,5,-1
 585 146 l 1,6,-1
 585 0 l 1,7,-1
 0 0 l 1,0,-1
292 292 m 1,8,-1
 292 438 l 1,9,-1
 438 438 l 1,10,-1
 438 292 l 1,11,-1
 292 292 l 1,8,-1
438 438 m 1,12,-1
 438 585 l 1,13,-1
 0 585 l 1,14,-1
 0 731 l 1,15,-1
 585 731 l 1,16,17
 585 730 585 730 585 438 c 1,18,-1
 438 438 l 1,12,-1
EndSplineSet
EndChar

StartChar: braceleft
Encoding: 123 123 92
Width: 585
GlyphClass: 1
Flags: W
LayerCount: 2
Fore
SplineSet
292 -146 m 1,0,-1
 292 0 l 1,1,-1
 438 0 l 1,2,-1
 438 -146 l 1,3,-1
 292 -146 l 1,0,-1
146 0 m 1,4,-1
 146 292 l 1,5,-1
 292 292 l 1,6,-1
 292 0 l 1,7,-1
 146 0 l 1,4,-1
0 292 m 1,8,-1
 0 438 l 1,9,-1
 146 438 l 1,10,-1
 146 292 l 1,11,-1
 0 292 l 1,8,-1
146 438 m 1,12,-1
 146 731 l 1,13,-1
 292 731 l 1,14,15
 292 730 292 730 292 438 c 1,16,-1
 146 438 l 1,12,-1
292 731 m 1,17,18
 292 732 292 732 292 878 c 1,19,-1
 438 878 l 1,20,-1
 438 731 l 1,21,-1
 292 731 l 1,17,18
EndSplineSet
EndChar

StartChar: bar
Encoding: 124 124 93
Width: 292
GlyphClass: 1
Flags: W
LayerCount: 2
Fore
SplineSet
0 -146 m 1,0,-1
 0 878 l 1,1,-1
 146 878 l 1,2,-1
 146 -146 l 1,3,-1
 0 -146 l 1,0,-1
EndSplineSet
EndChar

StartChar: braceright
Encoding: 125 125 94
Width: 585
GlyphClass: 1
Flags: W
LayerCount: 2
Fore
SplineSet
0 -146 m 1,0,-1
 0 0 l 1,1,-1
 146 0 l 1,2,-1
 146 -146 l 1,3,-1
 0 -146 l 1,0,-1
146 0 m 1,4,-1
 146 292 l 1,5,-1
 292 292 l 1,6,-1
 292 0 l 1,7,-1
 146 0 l 1,4,-1
292 292 m 1,8,-1
 292 438 l 1,9,-1
 438 438 l 1,10,-1
 438 292 l 1,11,-1
 292 292 l 1,8,-1
146 438 m 1,12,-1
 146 731 l 1,13,-1
 292 731 l 1,14,15
 292 730 292 730 292 438 c 1,16,-1
 146 438 l 1,12,-1
0 731 m 1,17,18
 0 732 0 732 0 878 c 1,19,-1
 146 878 l 1,20,-1
 146 731 l 1,21,-1
 0 731 l 1,17,18
EndSplineSet
EndChar

StartChar: asciitilde
Encoding: 126 126 95
Width: 731
GlyphClass: 1
Flags: W
LayerCount: 2
Fore
SplineSet
0 292 m 1,0,-1
 0 438 l 1,1,-1
 146 438 l 1,2,-1
 146 292 l 1,3,-1
 0 292 l 1,0,-1
292 292 m 1,4,-1
 292 438 l 1,5,-1
 438 438 l 1,6,-1
 438 292 l 1,7,-1
 292 292 l 1,4,-1
146 438 m 1,8,-1
 146 585 l 1,9,-1
 292 585 l 1,10,11
 292 584 292 584 292 438 c 1,12,-1
 146 438 l 1,8,-1
438 438 m 1,13,-1
 438 585 l 1,14,-1
 585 585 l 1,15,16
 585 584 585 584 585 438 c 1,17,-1
 438 438 l 1,13,-1
EndSplineSet
EndChar
